<svg xmlns="http://www.w3.org/2000/svg" xml:space="preserve" x="0px" y="0px" viewBox="0 0 100 125"><path d="M92.932 28.884C90.747 17.23 83.022 9.499 71.179 7.115 68.009 6.477 59.641 5 50.151 5h-.186c-9.21.019-17.803 1.484-21.07 2.113C17.067 9.392 9.339 17.123 7.134 28.884 6.34 33.117 5.008 41.495 5 50.043 4.991 59.24 6.49 67.88 7.135 71.168c1.168 5.953 3.704 10.869 7.539 14.612a1.03 1.03 0 0 0 1.439-1.474c-3.53-3.446-5.871-7.999-6.956-13.534-.632-3.229-2.104-11.712-2.096-20.727.008-8.382 1.318-16.618 2.098-20.781 2.038-10.871 9.185-18.019 20.125-20.126 3.21-.618 11.65-2.058 20.685-2.076h.182c9.304 0 17.511 1.449 20.621 2.075 10.964 2.207 18.114 9.355 20.134 20.128.759 4.051 2.033 12.132 2.033 20.736 0 8.966-1.422 17.519-2.033 20.78-2.019 10.773-9.17 17.921-20.134 20.128-2.367.477-10.862 2.031-20.805 2.031-9.44 0-17.604-1.42-20.677-2.031-3.571-.71-6.769-1.955-9.506-3.699a1.031 1.031 0 0 0-1.108 1.738c2.954 1.882 6.39 3.222 10.212 3.982 3.133.622 11.457 2.07 21.079 2.07 10.134 0 18.798-1.585 21.212-2.071 11.843-2.384 19.568-10.115 21.753-21.769C93.554 67.842 95 59.138 95 50c0-8.771-1.296-16.995-2.068-21.116z"/><path d="M46.014 30.42a1.03 1.03 0 1 0 0-2.062H29.389a6.19 6.19 0 0 0-6.183 6.183v30.916a6.19 6.19 0 0 0 6.183 6.183H70.61c.527 0 1.066-.072 1.6-.216a1.03 1.03 0 1 0-.533-1.991c-.361.096-.72.145-1.067.145H59.623c-.003-3.911-.004-7.815-.003-11.679h15.112v7.557c0 .5-.093.995-.277 1.474a1.03 1.03 0 1 0 1.924.738c.275-.715.414-1.46.414-2.213V34.542a6.19 6.19 0 0 0-6.183-6.183H50.894a1.03 1.03 0 1 0 0 2.062h6.667c-.003 3.94-.004 7.75-.002 11.679H42.437V30.42h3.577zM25.267 65.458v-7.557h6.074a1.03 1.03 0 1 0 0-2.062h-6.074V44.16h15.109v11.68h-3.242a1.03 1.03 0 1 0 0 2.062h3.242V69.58H29.389a4.127 4.127 0 0 1-4.122-4.122zm32.295 4.122H42.437V57.901h15.122c-.001 3.864 0 7.768.003 11.679zm2.061-39.16h10.988a4.127 4.127 0 0 1 4.122 4.122v7.557H59.621c-.002-3.93-.001-7.739.002-11.679zm-2.062 13.74.002 2.551c.001.569.462 1.03 1.031 1.03h.001a1.032 1.032 0 0 0 1.03-1.032l-.002-2.549h15.111v11.68H59.621l.002-3.621a1.032 1.032 0 0 0-1.03-1.032h-.001c-.569 0-1.03.461-1.031 1.03l-.002 3.623H42.437V44.16h15.124zm-17.185-2.061H25.267v-7.557a4.127 4.127 0 0 1 4.122-4.122h10.987v11.679z"/><text x="0" y="115" fill="#000000" font-size="5px" font-weight="bold" font-family="'Helvetica Neue', Helvetica, Arial-Unicode, Arial, Sans-serif">Created by Viktor Turchyn</text><text x="0" y="120" fill="#000000" font-size="5px" font-weight="bold" font-family="'Helvetica Neue', Helvetica, Arial-Unicode, Arial, Sans-serif">from the Noun Project</text></svg>